<svg xmlns="http://www.w3.org/2000/svg"
	xmlns:xlink="http://www.w3.org/1999/xlink"
	width="15px" height="11px" viewBox="0 0 15 11"
	 fill="rgb(7,158,74)">
<path fillRule="evenodd" d="M 12.86 3.78C 12.86 3.78 7.16 9.47 7.16 9.47 7.16 9.47 7.16 9.47 7.16 9.47 7.16 9.47 7.15 9.47 7.15 9.47 7.15 9.47 6.93 9.24 6.93 9.24 6.93 9.24 5.75 8.06 5.75 8.06 5.75 8.06 5.77 8.04 5.77 8.04 5.77 8.04 5.08 7.33 5.08 7.33 5.08 7.33 2.32 10.1 2.32 10.1 2.32 10.1 0.9 8.68 0.9 8.68 0.9 8.68 3.69 5.89 3.69 5.89 3.69 5.89 3.68 5.88 3.68 5.88 3.68 5.88 5.1 4.46 5.1 4.46 5.1 4.46 7.18 6.62 7.18 6.62 7.18 6.62 11.44 2.36 11.44 2.36 11.44 2.36 9.05-0.03 9.05-0.03 9.05-0.03 15-0.03 15-0.03 15-0.03 15 5.92 15 5.92 15 5.92 12.86 3.78 12.86 3.78Z"/>
</svg>