<svg xmlns="http://www.w3.org/2000/svg"
	xmlns:xlink="http://www.w3.org/1999/xlink"
	width="16px" height="17px" viewBox="0 0 16 17"
	 fill="rgb(255,255,255)">
<path fillRule="evenodd" d="M 14 8.97C 14 8.97 14 13 14 13 14 13 13.94 12.94 13.94 12.94 13.94 12.94 10.44 9.22 10.44 9.22 10.44 9.22 10.31 9.22 10.31 9.22 10.31 9.22 10.06 8.97 10.06 8.97 10.06 8.97 6 8.97 6 8.97 4.9 8.97 4 8.07 4 6.97 4 6.97 4 2 4 2 4 0.9 4.9-0 6-0 6-0 14-0 14-0 15.1-0 16 0.9 16 2 16 2 16 6.97 16 6.97 16 8.07 15.1 8.97 14 8.97ZM 9.53 9.97C 9.53 9.97 11.08 11.68 11.08 11.68 10.77 11.88 10.4 12 10 12 10 12 5.89 12 5.89 12 5.89 12 2.09 16.16 2.09 16.16 2.09 16.16 2.09 12 2.09 12 2.09 12 2 12 2 12 0.9 12-0 11.1-0 10-0 10-0 5-0 5-0 3.9 0.9 3 2 3 2 3 3 3 3 3 3 3 3 7.97 3 7.97 3 9.07 3.9 9.97 5 9.97 5 9.97 9.53 9.97 9.53 9.97Z"/>
</svg>