<svg xmlns="http://www.w3.org/2000/svg"
	xmlns:xlink="http://www.w3.org/1999/xlink"
	width="16px" height="15px" viewBox="0 0 16 15"
	 fill="rgb(255,255,255)">
<path fillRule="evenodd" d="M 15 11.3C 14.65 12.63 13.98 12.99 12.72 12.99 12.72 12.99 5.01 12.99 5.01 12.99 5.01 12.99 5.01 5.02 5.01 5.02 5.01 5.02 5.01 4.96 5.01 4.96 5.54 3.37 6.13 1.59 6.13 1.59 6.43 0.68 7.41 0.19 8.32 0.49 9.22 0.79 9.68 1.76 9.38 2.66 9.38 2.66 8.61 4.97 8.61 4.97 8.61 4.97 13.72 4.97 13.72 4.97 14.98 4.97 16 5.99 16 7.25 16 7.25 15 11.3 15 11.3ZM-0 5C-0 5 4 5 4 5 4 5 4 15 4 15 4 15-0 15-0 15-0 15-0 5-0 5Z"/></svg>
